# xmcd CD database file
#
# Track frame offsets:
#	150
#	27755
#	45713
#	65628
#	74313
#	92400
#	104655
#	117843
#	135130
#	144695
#	162313
#	180808
#
# Disc length: 2636 seconds
#
# Revision: 2
# Processed by: cddbd v1.5.1PL0 Copyright (c) Steve Scherf et al.
# Submitted via: CDex 1.51
#
DISCID=9c0a4a0c
DTITLE=Enya - Shepherd Moons
DYEAR=1991
DGENRE=New Age
TTITLE0=Shepherd Moons
TTITLE1=Caribbean Blue
TTITLE2=How Can I Keep From Singing?
TTITLE3=Ebudae
TTITLE4=Angeles
TTITLE5=No Holly For Miss Quinn
TTITLE6=Book Of Days
TTITLE7=Evacuee
TTITLE8=Lothlorien
TTITLE9=Marble Halls
TTITLE10=Afer Ventus
TTITLE11=Smaointe...
EXTD=YEAR: 1991
EXTT0=
EXTT1=
EXTT2=
EXTT3=
EXTT4=
EXTT5=
EXTT6=
EXTT7=
EXTT8=
EXTT9=
EXTT10=
EXTT11=
PLAYORDER=
